#!OML:ASF H:\Terrain\Patient Classification 1\Walking\liu\liu.ASF
:FULLY-SPECIFIED
:DEGREES
1
root 7.422 15.892 -34.8522 7.62398 -1.73321 -2.65589
lowerback -2.34432 -0.0345251 -0.170027
upperback -0.848259 -0.0604906 2.88897
thorax 0.44801 -0.0274597 3.0597
lowerneck -21.6046 -4.28064 -12.8392
upperneck 18.8658 -4.84901 12.9571
head 10.2396 -1.68673 6.07689
rclavicle -3.97569e-015 1.63003e-014
rhumerus -35.45 18.8253 -84.9005
rradius 46.5509
rwrist -23.5147
rhand -31.7311 -28.8737
rfingers 7.12502
rthumb -4.98908 -58.7949
lclavicle -3.97569e-015 1.63003e-014
lhumerus -45.1067 -12.1905 96.2073
lradius 27.5552
lwrist 2.35893
lhand -5.41032 -22.5375
lfingers 7.12502
lthumb 20.3991 6.41105
rfemur -17.4462 3.86295 27.3909
rtibia 33.7571
rfoot -22.7187 1.23003
rtoes -11.2354
lfemur -35.6494 8.89188 -18.7183
ltibia 63.7517
lfoot -17.2262 13.1745
ltoes -10.7478
2
root 7.42288 15.8964 -34.6778 7.75234 -2.12727 -2.89966
lowerback -2.19257 0.192904 -0.00483849
upperback -1.02221 0.246242 2.89138
thorax 0.168637 0.12912 2.97592
lowerneck -21.2779 -4.34306 -12.9679
upperneck 18.7603 -4.96235 13.107
head 10.1671 -1.74175 6.13211
rclavicle -5.46658e-016 5.56597e-015
rhumerus -35.2888 19.1012 -84.9674
rradius 47.4944
rwrist -23.6579
rhand -32.1035 -28.2257
rfingers 7.12502
rthumb -5.34871 -58.1382
lclavicle -5.46658e-016 5.56597e-015
lhumerus -46.3565 -12.1063 96.3824
lradius 28.1829
lwrist 2.77236
lhand -5.4061 -22.0831
lfingers 7.12502
lthumb 20.4032 6.86504
rfemur -16.5709 4.38864 27.6572
rtibia 33.2161
rfoot -23.103 0.816712
rtoes -12.7148
lfemur -36.8898 9.27243 -18.6649
ltibia 62.196
lfoot -17.6531 12.2937
ltoes -13.1482
3
root 7.42294 15.9149 -34.4997 7.81043 -2.5219 -2.67454
lowerback -2.32423 0.390074 -0.303005
upperback -0.911309 0.511703 2.77224
thorax 0.340709 0.260528 3.02878
lowerneck -21.1042 -4.44303 -13.0881
upperneck 18.4548 -5.05224 13.0837
head 10.043 -1.79923 6.11681
rclavicle 7.7526e-015 4.01545e-014
rhumerus -34.6539 19.4839 -84.9029
rradius 48.3365
rwrist -24.0778
rhand -32.5169 -26.7497
rfingers 7.12502
rthumb -5.74783 -56.6518
lclavicle 7.7526e-015 4.01545e-014
lhumerus -47.3304 -12.2463 96.5886
lradius 29.03
lwrist 3.49809
lhand -5.18237 -21.5205
lfingers 7.12502
lthumb 20.6182 7.40447
rfemur -15.5194 4.8359 27.4177
rtibia 32.4465
rfoot -23.637 0.481751
rtoes -12.7692
lfemur -37.888 9.42562 -19.0716
ltibia 60.2638
lfoot -17.7751 12.0339
ltoes -11.454
4
root 7.43001 15.9244 -34.3224 7.88536 -2.851 -2.7215
lowerback -2.37347 0.590743 -0.289346
upperback -0.84709 0.777434 2.7375
thorax 0.420175 0.392422 2.99295
lowerneck -21.2985 -4.45446 -12.7651
upperneck 18.5172 -5.08348 12.7882
head 10.0872 -1.81656 5.94799
rclavicle -2.6339e-015 -5.96354e-015
rhumerus -34.1852 19.8368 -84.7703
rradius 49.3366
rwrist -24.3377
rhand -32.5704 -26.737
rfingers 7.12502
rthumb -5.79946 -56.6376
lclavicle -2.6339e-015 -5.96354e-015
lhumerus -48.3035 -12.4325 96.8058
lradius 29.626
lwrist 4.13974
lhand -5.30173 -21.501
lfingers 7.12502
lthumb 20.5035 7.43633
rfemur -14.4664 5.08688 27.4508
rtibia 31.6148
rfoot -23.964 0.549233
rtoes -12.2748
lfemur -38.8834 9.35043 -19.1131
ltibia 58.2923
lfoot -18.1672 11.6359
ltoes -8.76517
5
root 7.43499 15.931 -34.1438 8.04425 -3.09712 -2.93469
lowerback -2.47164 0.765464 -0.1784
upperback -0.8335 1.0062 2.77626
thorax 0.477885 0.506371 2.97805
lowerneck -21.4889 -4.41867 -12.5067
upperneck 18.6214 -5.08165 12.6959
head 10.149 -1.8011 5.87391
rclavicle 1.26228e-014 5.00937e-014
rhumerus -33.7257 20.2206 -84.5943
rradius 50.3176
rwrist -24.3798
rhand -32.5402 -27.429
rfingers 7.12502
rthumb -5.77026 -57.3305
lclavicle 1.26228e-014 5.00937e-014
lhumerus -49.2852 -12.5124 96.9761
lradius 30.1561
lwrist 4.77327
lhand -5.61359 -21.8494
lfingers 7.12502
lthumb 20.2038 7.11996
rfemur -13.4521 5.43513 27.6615
rtibia 30.7004
rfoot -23.7761 0.485079
rtoes -12.8404
lfemur -39.8713 9.20259 -18.89
ltibia 56.172
lfoot -18.5387 11.3404
ltoes -7.22128
6
root 7.43482 15.9359 -33.9633 8.07892 -3.32619 -3.02722
lowerback -2.56416 0.876272 -0.236131
upperback -0.696439 1.15061 2.84483
thorax 0.659969 0.576292 3.08864
lowerneck -21.4558 -4.51506 -12.8601
upperneck 18.3499 -5.1371 12.9296
head 10.0723 -1.82702 6.00379
rclavicle -1.68967e-014 -1.11319e-014
rhumerus -32.7187 21.2551 -84.4008
rradius 50.6313
rwrist -24.9896
rhand -32.6177 -27.6868
rfingers 7.12502
rthumb -5.84516 -57.5862
lclavicle -1.68967e-014 -1.11319e-014
lhumerus -50.0919 -12.2999 97.0481
lradius 30.7144
lwrist 5.47907
lhand -5.76552 -22.4132
lfingers 7.12502
lthumb 20.0577 6.57148
rfemur -12.2526 5.95586 27.7898
rtibia 29.7235
rfoot -23.7892 -0.0170815
rtoes -13.4114
lfemur -40.6265 9.18373 -18.7688
ltibia 53.9285
lfoot -18.5434 11.3187
ltoes -6.15948
7
root 7.44065 15.9322 -33.7787 8.01695 -3.47481 -3.09361
lowerback -2.50809 0.946075 -0.203347
upperback -0.615344 1.24156 2.87469
thorax 0.706723 0.620853 3.10353
lowerneck -21.4375 -4.66027 -13.2785
upperneck 18.2111 -5.25165 13.1706
head 10.0572 -1.88391 6.14368
rclavicle -2.6339e-015 1.27222e-014
rhumerus -31.8242 22.1149 -84.2298
rradius 50.942
rwrist -25.5349
rhand -32.1615 -28.1468
rfingers 7.12502
rthumb -5.40463 -58.0579
lclavicle -2.6339e-015 1.27222e-014
lhumerus -51.1928 -12.1371 97.1888
lradius 31.6003
lwrist 6.33542
lhand -5.93982 -22.7343
lfingers 7.12502
lthumb 19.8902 6.26782
rfemur -10.92 6.12844 27.8843
rtibia 28.7239
rfoot -24.0627 -0.318231
rtoes -13.907
lfemur -41.2587 9.20335 -18.8215
ltibia 51.6173
lfoot -17.9343 11.9696
ltoes -7.46869
8
root 7.44659 15.9295 -33.5916 7.95877 -3.75724 -2.86142
lowerback -2.56413 1.08451 -0.484949
upperback -0.503206 1.43159 2.77635
thorax 0.838166 0.713562 3.16909
lowerneck -21.5543 -4.7738 -13.367
upperneck 18.2145 -5.38298 13.2348
head 10.105 -1.94004 6.16333
rclavicle 2.04251e-014 5.36719e-014
rhumerus -31.0336 22.4711 -84.009
rradius 51.4339
rwrist -25.6087
rhand -31.8168 -27.8409
rfingers 7.12502
rthumb -5.07182 -57.7602
lclavicle 2.04251e-014 5.36719e-014
lhumerus -52.2589 -12.171 97.4046
lradius 32.5548
lwrist 7.43858
lhand -6.2382 -22.4913
lfingers 7.12502
lthumb 19.6034 6.54033
rfemur -9.60634 6.18387 27.6201
rtibia 27.655
rfoot -24.1806 -0.495025
rtoes -15.1619
lfemur -41.8359 9.25486 -19.2214
ltibia 49.3091
lfoot -16.9803 12.8187
ltoes -10.33
9
root 7.45337 15.9275 -33.4108 8.00658 -4.05109 -2.93055
lowerback -2.59646 1.26827 -0.488093
upperback -0.460595 1.67585 2.76985
thorax 0.88577 0.835056 3.17304
lowerneck -21.3116 -4.74005 -13.247
upperneck 17.9191 -5.3613 13.1611
head 9.94675 -1.93647 6.10573
rclavicle 1.08835e-014 8.34896e-015
rhumerus -30.4669 23.1975 -83.8731
rradius 52.0171
rwrist -26.0732
rhand -32.4405 -26.8066
rfingers 7.12502
rthumb -5.67407 -56.7106
lclavicle 1.08835e-014 8.34896e-015
lhumerus -53.055 -12.0418 97.4873
lradius 32.9483
lwrist 8.36434
lhand -6.56409 -22.4726
lfingers 7.12502
lthumb 19.29 6.59068
rfemur -8.38892 6.2771 27.6607
rtibia 26.4849
rfoot -24.0982 -0.578262
rtoes -15.8029
lfemur -42.4682 9.2822 -19.1491
ltibia 47.0883
lfoot -16.6027 12.8855
ltoes -11.6215
10
root 7.46445 15.9111 -33.2337 8.1895 -4.12311 -3.64477
lowerback -2.53133 1.36553 0.165091
upperback -0.544104 1.78876 2.96677
thorax 0.770808 0.894301 3.0087
lowerneck -21.0787 -4.48622 -12.8135
upperneck 17.7205 -5.12756 13.0401
head 9.78274 -1.8177 6.01335
rclavicle -7.95139e-015 -4.57205e-014
rhumerus -30.038 24.0111 -83.7891
rradius 52.5621
rwrist -26.4547
rhand -32.8597 -26.6167
rfingers 7.12502
rthumb -6.07877 -56.5095
lclavicle -7.95139e-015 -4.57205e-014
lhumerus -53.8274 -11.6122 97.3644
lradius 33.132
lwrist 8.995
lhand -6.6534 -23.0081
lfingers 7.12502
lthumb 19.2041 6.0637
rfemur -7.26149 6.31519 28.4023
rtibia 25.2816
rfoot -23.8636 -0.228528
rtoes -14.9392
lfemur -43.2743 9.1425 -18.267
ltibia 44.913
lfoot -16.7442 12.3561
ltoes -11.375
11
root 7.47341 15.8905 -33.0489 8.34638 -4.25992 -4.06764
lowerback -2.6371 1.4827 0.556405
upperback -0.537633 1.9309 3.06764
thorax 0.838915 0.965573 2.90035
lowerneck -20.9785 -4.62734 -13.243
upperneck 17.4959 -5.23156 13.2609
head 9.72099 -1.87503 6.14536
rclavicle -3.32964e-015 2.14687e-014
rhumerus -29.3814 24.372 -83.5625
rradius 52.8899
rwrist -26.4406
rhand -32.5 -26.1958
rfingers 7.12502
rthumb -5.73145 -56.0983
lclavicle -3.32964e-015 2.14687e-014
lhumerus -54.7389 -11.4117 97.3689
lradius 33.7274
lwrist 9.96272
lhand -7.78346 -24.7149
lfingers 7.12502
lthumb 18.1172 4.4613
rfemur -6.0759 6.41795 28.8379
rtibia 24.0758
rfoot -23.6768 0.118674
rtoes -13.8725
lfemur -44.0067 8.97534 -17.6585
ltibia 42.6882
lfoot -16.6893 12.0427
ltoes -12.1981
12
root 7.48136 15.8833 -32.8604 8.49747 -4.50735 -4.07544
lowerback -2.82651 1.62292 0.521345
upperback -0.546598 2.11478 3.06884
thorax 0.925954 1.05714 2.93321
lowerneck -20.8177 -4.62511 -13.3108
upperneck 17.3406 -5.23969 13.3759
head 9.64465 -1.87609 6.19245
rclavicle 2.18663e-014 5.96354e-015
rhumerus -28.8382 24.7726 -83.3373
rradius 53.2983
rwrist -26.6191
rhand -32.2545 -25.1988
rfingers 7.12502
rthumb -5.49444 -55.1076
lclavicle 2.18663e-014 5.96354e-015
lhumerus -55.8629 -11.2983 97.5136
lradius 34.5644
lwrist 10.9188
lhand -11.462 -28.9569
lfingers 7.12502
lthumb 14.5754 0.511023
rfemur -4.88646 6.58104 28.7857
rtibia 22.9401
rfoot -23.784 0.203121
rtoes -13.1656
lfemur -44.5512 8.78542 -17.4654
ltibia 40.305
lfoot -16.4085 11.7614
ltoes -12.672
13
root 7.48694 15.8753 -32.675 8.64447 -4.78463 -4.13651
lowerback -2.9957 1.74812 0.461416
upperback -0.513807 2.2793 3.0288
thorax 1.04589 1.13849 2.93798
lowerneck -20.7199 -4.66672 -13.3685
upperneck 17.1365 -5.36517 13.7743
head 9.59109 -1.89905 6.32466
rclavicle 1.09829e-014 -1.59028e-014
rhumerus -28.1952 25.1603 -83.2375
rradius 53.7302
rwrist -26.8014
rhand -32.4843 -24.7269
rfingers 7.12502
rthumb -5.71632 -54.6298
lclavicle 1.09829e-014 -1.59028e-014
lhumerus -56.6089 -10.9646 97.2581
lradius 34.9529
lwrist 11.3577
lhand -10.2501 -25.4592
lfingers 7.12502
lthumb 15.7428 3.92048
rfemur -3.79357 6.73249 28.7899
rtibia 22.0033
rfoot -23.9299 0.235104
rtoes -13.2006
lfemur -44.9245 8.57005 -17.1168
ltibia 37.7624
lfoot -16.1712 11.4788
ltoes -12.5373
14
root 7.4981 15.8534 -32.4887 8.62147 -5.13432 -4.07676
lowerback -3.02844 1.94453 0.337557
upperback -0.356088 2.54181 2.92338
thorax 1.21305 1.26758 2.91348
lowerneck -20.8814 -4.81548 -13.4164
upperneck 16.9647 -5.58559 14.0523
head 9.60734 -1.96975 6.39799
rclavicle -3.04141e-014 -2.26615e-014
rhumerus -27.3509 25.1459 -82.997
rradius 54.0122
rwrist -26.8078
rhand -32.4832 -24.0188
rfingers 7.12502
rthumb -5.71528 -53.9217
lclavicle -3.04141e-014 -2.26615e-014
lhumerus -56.7912 -10.6495 96.8438
lradius 34.7526
lwrist 11.5811
lhand -9.44927 -24.4469
lfingers 7.12502
lthumb 16.5139 4.87031
rfemur -2.64822 6.73887 28.6667
rtibia 21.207
rfoot -24.2638 0.350715
rtoes -13.0386
lfemur -45.0116 8.30906 -16.8168
ltibia 35.1867
lfoot -15.9784 11.587
ltoes -12.6935
15
root 7.51428 15.8247 -32.303 8.67781 -5.60489 -4.11849
lowerback -3.03996 2.15463 0.267473
upperback -0.275811 2.82149 2.98359
thorax 1.28214 1.40621 3.02802
lowerneck -21.0514 -4.89949 -13.3996
upperneck 16.933 -5.60692 13.7171
head 9.61735 -2.00798 6.26536
rclavicle 8.44835e-016 -5.56597e-015
rhumerus -26.5934 25.3577 -82.5893
rradius 54.2574
rwrist -26.9154
rhand -32.0579 -19.6856
rfingers 7.12502
rthumb -5.3046 -49.5992
lclavicle 8.44835e-016 -5.56597e-015
lhumerus -57.0931 -10.1572 96.6785
lradius 34.6864
lwrist 11.78
lhand -9.37294 -24.3097
lfingers 7.12502
lthumb 16.5874 5.00139
rfemur -1.53284 6.83974 28.5735
rtibia 20.2662
rfoot -24.6902 0.739821
rtoes -10.8363
lfemur -45.1994 8.26045 -16.495
ltibia 32.7646
lfoot -15.2725 11.5206
ltoes -11.4742
